<svg width="62" height="56" viewBox="0 0 62 56" fill="none" xmlns="http://www.w3.org/2000/svg">
    <path d="M8.69797 8.04208C8.84568 7.9046 9.02503 7.81623 9.23604 7.77695L41.1413 0.0589164C41.3734 -0.0196388 41.6055 -0.0196388 41.8377 0.0589164L42.4074 0.382949L61.7152 20.3261L62 20.8858L61.9684 21.5045L50.7002 52.1999L50.2887 52.7301C50.0988 52.8872 49.8773 52.9756 49.6241 52.9953L19.3331 56L18.7317 55.9116L18.2253 55.5581L0.278493 34.849L0.025338 34.3482C-0.0168648 34.1518 -0.00636045 33.9653 0.0569437 33.7885L8.34977 8.57233L8.53971 8.21883L8.69797 8.04208ZM9.55256 8.89637L1.25974 34.1126L19.2064 54.8217L49.4974 51.8169L60.7656 21.1215L41.4578 1.17832L9.55256 8.89637Z" fill="#737E83"/>
    <path d="M23.258 13.2562L26.5498 16.2315L28.4806 12.1957L38.5143 10.1631L51.9031 21.8874L44.6864 44.3346L39.907 44.8648L35.5706 39.9453L32.8802 45.6307L21.6121 46.8385L17.2124 41.0058L17.8455 38.6197L14.617 37.5592L10.0907 31.6086L16.2628 14.6407L23.258 13.2562ZM38.5775 28.6039L42.0593 26.3945L41.268 22.8596L37.628 21.8285L35.4123 25.8054L38.5775 28.6039Z" fill="#9AAAB1"/>
    <path d="M38.5775 28.6038L35.4123 25.8053L37.6279 21.8284L41.2679 22.8594L42.0592 26.3944L38.5775 28.6038ZM23.2579 13.2561L16.2628 14.6406L10.0907 31.6085L14.6169 37.5591L17.8454 38.6196L17.2124 41.0057L21.6121 46.8384L32.8801 45.6306L35.5706 39.9452L39.907 44.8647L44.6864 44.3345L51.9031 21.8873L38.5142 10.163L28.4805 12.1956L26.5497 16.2314L23.2579 13.2561ZM9.55259 8.89627L41.4579 1.17822L60.7656 21.1214L49.4975 51.8168L19.2065 54.8216L1.25977 34.1125L9.55259 8.89627Z" fill="#8B979C"/>
</svg>
