<svg width="60" height="65" viewBox="0 0 60 65" fill="none" xmlns="http://www.w3.org/2000/svg">
    <path d="M39.963 0H43.0741C43.3457 0 43.5926 0.0773243 43.8148 0.232086L59.2593 9.47917L59.8148 10.0208L60 10.7946V46.9702L59.8148 47.744L59.2593 48.3244L40.037 60.0476L41 57.6874L58.5185 46.9702V10.7946L43.0741 1.54762H41.8148L39.963 0ZM20 60.0476L0.740741 48.3244L0.185185 47.744L0 46.9702V10.7946C0 10.5109 0.0617284 10.2529 0.185185 10.0208L0.740741 9.47917L16.1852 0.232086C16.4074 0.0773243 16.6543 0 16.9259 0H20.037L18.1852 1.54762H16.9259L1.48148 10.7946V46.9702L19.037 57.6874L20 60.0476ZM27.1111 7.42855H32.8889V8.97617H27.1111V7.42855Z" fill="#C4C4C4"/>
    <path d="M42.074 54.9405L46.1851 44.61L46.2962 43.991V33.0803L46.1851 32.4613L45.8147 31.9196L38.9999 25.6131V15.747H43.7036L44.5184 15.4762L45.074 14.7797L47.111 9.55652C47.2345 9.2212 47.2592 8.89878 47.1851 8.58925C47.0863 8.25394 46.9012 7.98307 46.6296 7.77672C46.3579 7.54457 46.074 7.42854 45.7777 7.42854H36.1481V1.54761H41.6666L45.7036 4.79757L46.9999 5.88092L55.6666 13.0387V45.0744L42.074 54.9405ZM45.1481 15.9404V21.0863C45.1481 21.7311 45.4691 22.0536 46.111 22.0536H51.037C51.6543 22.0536 51.9629 21.7311 51.9629 21.0863V15.9404C51.9629 15.2698 51.6543 14.9345 51.037 14.9345H46.111C45.4691 14.9345 45.1481 15.2698 45.1481 15.9404ZM51.037 23.9106H46.111C45.4691 23.9106 45.1481 24.246 45.1481 24.9166V30.0625C45.1481 30.7331 45.4691 31.0684 46.111 31.0684H51.037C51.6543 31.0684 51.9629 30.7331 51.9629 30.0625V24.9166C51.9629 24.246 51.6543 23.9106 51.037 23.9106ZM18.3332 1.54761H23.8518V7.42854H14.2592C13.9382 7.42854 13.6419 7.54457 13.3703 7.77672C13.0987 7.98307 12.9258 8.25394 12.8518 8.58925C12.753 8.89878 12.7653 9.2212 12.8888 9.55652L14.9258 14.7797C15.0493 15.0635 15.2345 15.2956 15.4814 15.4762C15.7283 15.6567 15.9999 15.747 16.2962 15.747H20.9999V25.6131L14.2221 31.9196C14.0493 32.0744 13.9258 32.2549 13.8518 32.4613L13.7036 33.0803V43.991L13.8147 44.61L17.9258 54.9405L4.33325 45.0744V13.0387L12.9999 5.88092L14.2962 4.79757L18.3332 1.54761ZM8.96288 23.9106C8.3456 23.9106 8.03696 24.246 8.03696 24.9166V30.0625C8.03696 30.7331 8.3456 31.0684 8.96288 31.0684H13.8888C14.5308 31.0684 14.8518 30.7331 14.8518 30.0625V24.9166C14.8518 24.246 14.5308 23.9106 13.8888 23.9106H8.96288ZM14.8518 15.9404C14.8518 15.2698 14.5308 14.9345 13.8888 14.9345H8.96288C8.3456 14.9345 8.03696 15.2698 8.03696 15.9404V21.0863C8.03696 21.7311 8.3456 22.0536 8.96288 22.0536H13.8888C14.5308 22.0536 14.8518 21.7311 14.8518 21.0863V15.9404Z" fill="#63596D"/>
    <path d="M40.0369 60.0478L38.4073 64.0715L37.8517 64.7293L37.0369 65.0002H22.9628C22.6665 65.0002 22.3949 64.9098 22.148 64.7293L21.5925 64.0715L19.9999 60.0478L19.0369 57.6876L17.9258 54.9406L13.8147 44.6102L13.7036 43.9912V33.0805L13.8517 32.4614C13.9258 32.2551 14.0493 32.0746 14.2221 31.9198L20.9999 25.6132V15.7472H16.2962C15.9999 15.7472 15.7283 15.6569 15.4814 15.4763C15.2344 15.2958 15.0493 15.0636 14.9258 14.7799L12.8888 9.55669C12.7653 9.22137 12.753 8.89895 12.8517 8.58943C12.9258 8.25411 13.0986 7.98324 13.3702 7.77689C13.6418 7.54474 13.9382 7.42871 14.2591 7.42871H23.8517H25.3332H27.111V8.97633H14.2591L16.2962 14.1995H22.4814V26.3097L15.1851 33.0805V43.9912L22.9628 63.4525H37.0369L44.8147 43.9912V33.0805L37.5184 26.3097V14.1995H43.7036L45.7406 8.97633H32.8888V7.42871H34.6665H36.148H45.7776C46.0739 7.42871 46.3579 7.54474 46.6295 7.77689C46.9011 7.98324 47.0863 8.25411 47.1851 8.58943C47.2592 8.89895 47.2344 9.22137 47.111 9.55669L45.0739 14.7799L44.5184 15.4763L43.7036 15.7472H38.9999V25.6132L45.8147 31.9198L46.185 32.4614L46.2962 33.0805V43.9912L46.185 44.6102L42.0739 54.9406L40.9999 57.6876L40.0369 60.0478Z" fill="#A1A1A1"/>
    <path d="M20.037 0H23.8519C24.2716 0 24.6173 0.154743 24.8889 0.464267C25.1852 0.747997 25.3333 1.10913 25.3333 1.54762V7.42855H23.8519V1.54762H18.3333H18.1852L20.037 0ZM34.6667 7.42855V1.54762C34.6667 1.10913 34.8148 0.747997 35.1111 0.464267C35.3827 0.154743 35.7284 0 36.1481 0H39.963L41.8148 1.54762H41.6667H36.1481V7.42855H34.6667Z" fill="#4F4758"/>
    <path d="M41.8148 1.54761H43.074L58.5185 10.7946V46.9702L41 57.6874L42.074 54.9405L55.6666 45.0744V13.0387L47 5.88092L45.7037 4.79757L41.6666 1.54761H41.8148ZM32.8888 8.97616V37.0268L36.4074 43.3333H23.5926L27.1111 37.0268V8.97616H32.8888ZM18.3333 1.54761L14.2963 4.79757L13 5.88092L4.3333 13.0387V45.0744L17.9259 54.9405L19.037 57.6874L1.48145 46.9702V10.7946L16.9259 1.54761H18.1851H18.3333Z" fill="#EEEEEE"/>
    <path d="M45.1481 15.9403C45.1481 15.2697 45.4691 14.9343 46.1111 14.9343H51.037C51.6543 14.9343 51.9629 15.2697 51.9629 15.9403V21.0862C51.9629 21.731 51.6543 22.0534 51.037 22.0534H46.1111C45.4691 22.0534 45.1481 21.731 45.1481 21.0862V15.9403ZM51.037 23.9105C51.6543 23.9105 51.9629 24.2459 51.9629 24.9165V30.0623C51.9629 30.733 51.6543 31.0682 51.037 31.0682H46.1111C45.4691 31.0682 45.1481 30.733 45.1481 30.0623V24.9165C45.1481 24.2459 45.4691 23.9105 46.1111 23.9105H51.037ZM14.8518 15.9403V21.0862C14.8518 21.731 14.5308 22.0534 13.8888 22.0534H8.96291C8.34563 22.0534 8.03699 21.731 8.03699 21.0862V15.9403C8.03699 15.2697 8.34563 14.9343 8.96291 14.9343H13.8888C14.5308 14.9343 14.8518 15.2697 14.8518 15.9403ZM8.96291 23.9105H13.8888C14.5308 23.9105 14.8518 24.2459 14.8518 24.9165V30.0623C14.8518 30.733 14.5308 31.0682 13.8888 31.0682H8.96291C8.34563 31.0682 8.03699 30.733 8.03699 30.0623V24.9165C8.03699 24.2459 8.34563 23.9105 8.96291 23.9105Z" fill="#5A5164"/>
    <path d="M32.8889 8.97632H45.7408L43.7037 14.1995H37.5185V26.3097L44.8148 33.0805V43.9912L37.0371 63.4525H22.963L15.1852 43.9912V33.0805L22.4815 26.3097V14.1995H16.2963L14.2593 8.97632H27.1111V37.0269L23.5926 43.3335H21.8148V44.6876V46.0418L30 49.3305L38.1852 46.0418V44.6876V43.3335H36.4074L32.8889 37.0269V8.97632Z" fill="#DBDBDB"/>
    <path d="M36.4074 43.3333H38.1852V44.6874L30 47.9761L21.8148 44.6874V43.3333H23.5926H36.4074Z" fill="#4A3C55"/>
    <path d="M38.1852 44.6875V46.0417L30 49.3304L21.8148 46.0417V44.6875L30 47.9762L38.1852 44.6875Z" fill="#544763"/>
</svg>
