<svg width="56" height="56" viewBox="0 0 56 56" fill="none" xmlns="http://www.w3.org/2000/svg">
    <path d="M40.3692 9.2309C40.5539 8.92321 40.5949 8.58475 40.4923 8.21552C40.4103 7.8668 40.2154 7.60014 39.9077 7.41553L38.8923 7.29244C38.5436 7.39501 38.2769 7.60014 38.0923 7.90783C37.9282 8.21552 37.8872 8.54373 37.9692 8.89245C38.0718 9.26168 38.2769 9.52834 38.5846 9.69244L39.5693 9.81552C39.9385 9.73347 40.2051 9.53859 40.3692 9.2309ZM28 14.5848H28.0308C31.7231 14.5848 34.882 15.8873 37.5077 18.4925L37.5385 18.5232C40.1026 21.1489 41.3846 24.3078 41.3846 28.0001V28.0309C41.3846 31.7232 40.0923 34.8617 37.5077 37.4463L37.4769 37.5386C34.8513 40.1027 31.7026 41.3847 28.0308 41.3847H28C24.3077 41.3847 21.1692 40.0822 18.5846 37.4771L18.5539 37.4463C15.9077 34.8617 14.5846 31.7232 14.5846 28.0309V28.0001C14.5846 24.3283 15.8872 21.1899 18.4923 18.5848V18.554L18.5539 18.4925C21.159 15.8873 24.3077 14.5848 28 14.5848ZM41.1692 14.8309C37.5385 11.2001 33.159 9.38475 28.0308 9.38475H28C22.8718 9.38475 18.4821 11.2001 14.8308 14.8309L14.8 14.8617C11.1898 18.4924 9.38464 22.8719 9.38464 28.0001C9.38464 33.1489 11.2 37.5283 14.8308 41.1386L14.8615 41.1694C18.4923 44.8001 22.8718 46.6155 28 46.6155H28.0308C33.1385 46.6155 37.5077 44.8104 41.1385 41.2001L41.1692 41.1386C44.8205 37.5283 46.6462 33.1489 46.6462 28.0001C46.6462 22.8514 44.8205 18.4617 41.1692 14.8309ZM46.1846 16.4309C46.1026 16.8001 46.1436 17.1386 46.3077 17.4463C46.4923 17.754 46.759 17.9489 47.1077 18.0309L48.1231 17.9078C48.4308 17.7437 48.6256 17.4771 48.7077 17.1078C48.8103 16.7591 48.7692 16.4309 48.5846 16.1232C48.4205 15.8155 48.1539 15.6104 47.7846 15.5078L46.8 15.6309C46.4923 15.8155 46.2872 16.0822 46.1846 16.4309ZM49.1385 28.0001C49.1385 28.3489 49.2718 28.6565 49.5385 28.9232C49.8052 29.1899 50.1129 29.3232 50.4616 29.3232C50.8103 29.3232 51.118 29.1899 51.3846 28.9232C51.6513 28.6565 51.7846 28.3489 51.7846 28.0001C51.7846 27.6514 51.6513 27.3437 51.3846 27.0771C51.118 26.8104 50.8103 26.6771 50.4616 26.6771C50.1129 26.6771 49.8052 26.8104 49.5385 27.0771C49.2718 27.3437 49.1385 27.6514 49.1385 28.0001ZM47.1077 37.9694C46.759 38.0719 46.4923 38.2771 46.3077 38.5848C46.1436 38.8924 46.1026 39.2207 46.1846 39.5694C46.2872 39.9386 46.4923 40.2053 46.8 40.3694L47.7846 40.4925C48.1539 40.4104 48.4205 40.2155 48.5846 39.9078C48.7692 39.6001 48.8103 39.2617 48.7077 38.8924C48.6256 38.5437 48.4308 38.2771 48.1231 38.0924L47.1077 37.9694ZM39.1692 28.0001C39.1692 24.9232 38.0923 22.2873 35.9385 20.0924C33.7436 17.9181 31.1077 16.8309 28.0308 16.8309H28C24.9231 16.8309 22.2974 17.9181 20.1231 20.0924L20.0923 20.154C17.918 22.3283 16.8308 24.9437 16.8308 28.0001V28.0309C16.8308 31.1078 17.9282 33.7232 20.1231 35.8771L20.1539 35.9078C22.3077 38.0822 24.9231 39.1694 28 39.1694H28.0308C31.0872 39.1694 33.7128 38.1027 35.9077 35.9694L35.9385 35.8771C38.0923 33.7232 39.1692 31.1078 39.1692 28.0309V28.0001ZM40.3692 46.8001C40.2051 46.4925 39.9385 46.2873 39.5693 46.1848L38.5846 46.3078C38.2769 46.4924 38.0718 46.7591 37.9692 47.1078C37.8872 47.4771 37.9282 47.8155 38.0923 48.1232C38.2769 48.4309 38.5436 48.6258 38.8923 48.7078L39.9077 48.5848C40.2154 48.4207 40.4103 48.154 40.4923 47.7847C40.5949 47.436 40.5539 47.1078 40.3692 46.8001ZM46.8 46.8001C41.6308 52.0104 35.3641 54.6155 28 54.6155C20.6564 54.6155 14.3897 52.0104 9.2 46.8001C4.70769 42.3284 2.16412 37.036 1.56925 30.9232L1.41541 28.0001C1.41541 20.6565 4.01025 14.3899 9.2 9.20014C14.3897 4.0104 20.6564 1.41553 28 1.41553C35.3641 1.41553 41.6308 4.0104 46.8 9.20014C52.0103 14.3899 54.6154 20.6565 54.6154 28.0001C54.6154 35.3642 52.0103 41.6309 46.8 46.8001ZM18.0308 8.89245C18.1334 8.54373 18.0923 8.21552 17.9077 7.90783C17.7436 7.60014 17.4769 7.39501 17.1077 7.29244L16.1231 7.41553C15.8154 7.60014 15.6103 7.8668 15.5077 8.21552C15.4256 8.58475 15.4667 8.92321 15.6308 9.2309C15.8154 9.53859 16.0821 9.73347 16.4308 9.81552L17.4462 9.69244C17.7539 9.52834 17.9487 9.26168 18.0308 8.89245ZM9.2308 15.6309L8.2154 15.5078C7.86668 15.6104 7.60002 15.8155 7.41541 16.1232C7.2513 16.4309 7.21027 16.7591 7.29232 17.1078C7.39489 17.4771 7.60001 17.7437 7.90771 17.9078L8.89231 18.0309C9.26154 17.9489 9.52823 17.754 9.69234 17.4463C9.87695 17.1386 9.91795 16.8001 9.81538 16.4309C9.73333 16.0822 9.53849 15.8155 9.2308 15.6309ZM28 6.86167C28.3487 6.86167 28.6564 6.72834 28.9231 6.46167C29.1898 6.195 29.3231 5.88731 29.3231 5.53859C29.3231 5.18988 29.1898 4.88218 28.9231 4.61552C28.6564 4.34885 28.3487 4.21552 28 4.21552C27.6513 4.21552 27.3436 4.34885 27.077 4.61552C26.8103 4.88218 26.6769 5.18988 26.6769 5.53859C26.6769 5.88731 26.8103 6.195 27.077 6.46167C27.3436 6.72834 27.6513 6.86167 28 6.86167ZM4.2154 28.0001C4.2154 28.3489 4.34875 28.6565 4.61541 28.9232C4.88208 29.1899 5.18977 29.3232 5.53849 29.3232C5.88721 29.3232 6.1949 29.1899 6.46157 28.9232C6.72823 28.6565 6.86154 28.3489 6.86154 28.0001C6.86154 27.6514 6.72823 27.3437 6.46157 27.0771C6.1949 26.8104 5.88721 26.6771 5.53849 26.6771C5.18977 26.6771 4.88208 26.8104 4.61541 27.0771C4.34875 27.3437 4.2154 27.6514 4.2154 28.0001ZM7.90771 38.0924C7.60001 38.2771 7.39489 38.5437 7.29232 38.8924C7.21027 39.2617 7.2513 39.6001 7.41541 39.9078C7.60002 40.2155 7.86668 40.4104 8.2154 40.4925L9.2308 40.3694C9.53849 40.2053 9.73333 39.9386 9.81538 39.5694C9.91795 39.2207 9.87695 38.8924 9.69234 38.5848C9.52823 38.2771 9.26154 38.0719 8.89231 37.9694L7.90771 38.0924ZM15.6308 46.8001C15.4667 47.1078 15.4256 47.436 15.5077 47.7847C15.6103 48.154 15.8154 48.4207 16.1231 48.5848L17.1077 48.7078C17.4769 48.6258 17.7436 48.4309 17.9077 48.1232C18.0923 47.8155 18.1334 47.4771 18.0308 47.1078C17.9487 46.7591 17.7539 46.4924 17.4462 46.3078L16.4308 46.1848C16.0821 46.2873 15.8154 46.4925 15.6308 46.8001ZM27.077 49.5386C26.8103 49.8053 26.6769 50.113 26.6769 50.4617C26.6769 50.8104 26.8103 51.1181 27.077 51.3848C27.3436 51.6514 27.6513 51.7847 28 51.7847C28.3487 51.7847 28.6564 51.6514 28.9231 51.3848C29.1898 51.1181 29.3231 50.8104 29.3231 50.4617C29.3231 50.113 29.1898 49.8053 28.9231 49.5386C28.6564 49.2719 28.3487 49.1386 28 49.1386C27.6513 49.1386 27.3436 49.2719 27.077 49.5386Z" fill="#D3E1E7"/>
    <path d="M40.3693 9.23094C40.2052 9.53863 39.9385 9.73351 39.5693 9.81556L38.5847 9.69248C38.277 9.52837 38.0718 9.26172 37.9693 8.89248C37.8872 8.54377 37.9283 8.21556 38.0924 7.90787C38.277 7.60017 38.5436 7.39504 38.8924 7.29248L39.9078 7.41556C40.2155 7.60018 40.4103 7.86684 40.4924 8.21556C40.5949 8.58479 40.5539 8.92325 40.3693 9.23094ZM49.1385 28.0002C49.1385 27.6515 49.2719 27.3438 49.5385 27.0771C49.8052 26.8104 50.1129 26.6771 50.4616 26.6771C50.8103 26.6771 51.118 26.8104 51.3847 27.0771C51.6514 27.3438 51.7847 27.6515 51.7847 28.0002C51.7847 28.3489 51.6514 28.6566 51.3847 28.9232C51.118 29.1899 50.8103 29.3232 50.4616 29.3232C50.1129 29.3232 49.8052 29.1899 49.5385 28.9232C49.2719 28.6566 49.1385 28.3489 49.1385 28.0002ZM40.3693 46.8002C40.5539 47.1079 40.5949 47.4361 40.4924 47.7848C40.4103 48.154 40.2155 48.4207 39.9078 48.5848L38.8924 48.7079C38.5436 48.6258 38.277 48.4309 38.0924 48.1233C37.9283 47.8156 37.8872 47.4771 37.9693 47.1079C38.0718 46.7592 38.277 46.4925 38.5847 46.3079L39.5693 46.1848C39.9385 46.2874 40.2052 46.4925 40.3693 46.8002ZM18.0308 8.89248C17.9488 9.26172 17.7539 9.52837 17.4462 9.69248L16.4308 9.81556C16.0821 9.73351 15.8154 9.53863 15.6308 9.23094C15.4667 8.92325 15.4257 8.58479 15.5077 8.21556C15.6103 7.86684 15.8154 7.60018 16.1231 7.41556L17.1078 7.29248C17.477 7.39504 17.7437 7.60017 17.9078 7.90787C18.0924 8.21556 18.1334 8.54377 18.0308 8.89248ZM4.21545 28.0002C4.21545 27.6515 4.3488 27.3438 4.61547 27.0771C4.88214 26.8104 5.18983 26.6771 5.53855 26.6771C5.88726 26.6771 6.19496 26.8104 6.46162 27.0771C6.72829 27.3438 6.8616 27.6515 6.8616 28.0002C6.8616 28.3489 6.72829 28.6566 6.46162 28.9232C6.19496 29.1899 5.88726 29.3232 5.53855 29.3232C5.18983 29.3232 4.88214 29.1899 4.61547 28.9232C4.3488 28.6566 4.21545 28.3489 4.21545 28.0002ZM15.6308 46.8002C15.8154 46.4925 16.0821 46.2874 16.4308 46.1848L17.4462 46.3079C17.7539 46.4925 17.9488 46.7592 18.0308 47.1079C18.1334 47.4771 18.0924 47.8156 17.9078 48.1233C17.7437 48.4309 17.477 48.6258 17.1078 48.7079L16.1231 48.5848C15.8154 48.4207 15.6103 48.154 15.5077 47.7848C15.4257 47.4361 15.4667 47.1079 15.6308 46.8002Z" fill="#EFF4F5"/>
    <path d="M31.3539 21.6C30.7795 22.1334 30.4924 22.7898 30.4924 23.5693C30.4924 24.1026 30.6462 24.5949 30.9539 25.0462L31.3539 25.5077C31.8667 26.0616 32.5231 26.3385 33.3231 26.3385C34.0821 26.3385 34.7283 26.0616 35.2616 25.5077C35.7744 24.9744 36.0308 24.3283 36.0308 23.5693V23.2C35.9488 22.5847 35.6924 22.0513 35.2616 21.6L34.8 21.2308L34.0616 20.8924L33.3231 20.8C32.5231 20.8 31.8667 21.0667 31.3539 21.6ZM39.1693 28V28.0308C39.1693 31.1077 38.0923 33.7231 35.9385 35.877L35.9077 35.9693C33.7129 38.1026 31.0872 39.1693 28.0308 39.1693H28.0001C24.9231 39.1693 22.3077 38.0821 20.1539 35.9077L20.1231 35.877C17.9282 33.7231 16.8308 31.1077 16.8308 28.0308V28C16.8308 24.9436 17.918 22.3282 20.0923 20.1539L20.1231 20.0923C22.2975 17.918 24.9231 16.8308 28.0001 16.8308H28.0308C31.1077 16.8308 33.7436 17.918 35.9385 20.0923C38.0923 22.2872 39.1693 24.9231 39.1693 28Z" fill="#4A3C55"/>
    <path d="M31.3538 21.6C31.8666 21.0667 32.5231 20.8 33.3231 20.8L34.0615 20.8924L34.8 21.2308L35.2615 21.6C35.6923 22.0513 35.9487 22.5847 36.0308 23.2V23.5693C36.0308 24.3283 35.7744 24.9744 35.2615 25.5077C34.7282 26.0616 34.082 26.3385 33.3231 26.3385C32.5231 26.3385 31.8666 26.0616 31.3538 25.5077L30.9538 25.0462C30.6462 24.5949 30.4923 24.1026 30.4923 23.5693C30.4923 22.7898 30.7795 22.1334 31.3538 21.6Z" fill="#594A68"/>
    <path d="M37.5385 18.523L37.5077 18.4922C34.882 15.8871 31.7231 14.5845 28.0308 14.5845H28V9.38452H28.0308C33.159 9.38452 37.5385 11.1999 41.1692 14.8307L37.5385 18.523ZM18.4923 18.5537V18.5845C15.8872 21.1897 14.5846 24.3281 14.5846 27.9999H9.38464C9.38464 22.8717 11.1898 18.4922 14.8 14.8614L18.4923 18.5537ZM18.5846 37.4768C21.1692 40.082 24.3077 41.3845 28 41.3845V46.6153C22.8718 46.6153 18.4923 44.7999 14.8615 41.1691L18.5846 37.4768ZM37.4769 37.5384L37.5077 37.4461C40.0923 34.8615 41.3846 31.723 41.3846 28.0307V27.9999H46.6462C46.6462 33.1486 44.8205 37.5281 41.1692 41.1384L41.1385 41.1999L37.4769 37.5384Z" fill="#FFCC00"/>
    <path d="M37.4769 37.5384L41.1385 41.1999C37.5077 44.8102 33.1385 46.6153 28.0308 46.6153H28V41.3845H28.0308C31.7026 41.3845 34.8513 40.1025 37.4769 37.5384ZM28 14.5845C24.3077 14.5845 21.159 15.8871 18.5539 18.4922L18.4923 18.5537L14.8 14.8614L14.8308 14.8307C18.4821 11.1999 22.8718 9.38452 28 9.38452V14.5845ZM14.5846 27.9999V28.0307C14.5846 31.723 15.9077 34.8615 18.5539 37.4461L18.5846 37.4768L14.8615 41.1691L14.8308 41.1384C11.2 37.5281 9.38464 33.1486 9.38464 27.9999H14.5846ZM41.3846 27.9999C41.3846 24.3076 40.1026 21.1486 37.5385 18.523L41.1692 14.8307C44.8205 18.4614 46.6462 22.8512 46.6462 27.9999H41.3846Z" fill="#E7B900"/>
    <path d="M46.1846 16.4308C46.2872 16.0821 46.4923 15.8154 46.8 15.6308L47.7846 15.5077C48.1538 15.6103 48.4205 15.8154 48.5846 16.1231C48.7692 16.4308 48.8102 16.759 48.7077 17.1077C48.6256 17.4769 48.4307 17.7436 48.123 17.9077L47.1077 18.0308C46.759 17.9487 46.4923 17.7539 46.3077 17.4462C46.1436 17.1385 46.1026 16.8 46.1846 16.4308ZM47.1077 37.9692L48.123 38.0923C48.4307 38.2769 48.6256 38.5436 48.7077 38.8923C48.8102 39.2615 48.7692 39.6 48.5846 39.9077C48.4205 40.2154 48.1538 40.4103 47.7846 40.4923L46.8 40.3692C46.4923 40.2051 46.2872 39.9385 46.1846 39.5692C46.1026 39.2205 46.1436 38.8923 46.3077 38.5846C46.4923 38.2769 46.759 38.0718 47.1077 37.9692ZM47.7846 47.7846C42.3282 53.2615 35.7333 56 28 56C20.2667 56 13.6615 53.2615 8.18461 47.7846C3.42563 43.0256 0.748718 37.4051 0.153846 30.9231L0 28C0 20.2667 2.7282 13.6615 8.18461 8.18463C13.6615 2.72822 20.2667 0 28 0C35.7333 0 42.3282 2.72822 47.7846 8.18463C53.2615 13.6615 56 20.2667 56 28C56 35.7333 53.2615 42.3282 47.7846 47.7846ZM46.8 46.8C52.0103 41.6308 54.6154 35.3641 54.6154 28C54.6154 20.6564 52.0103 14.3898 46.8 9.20001C41.6308 4.01026 35.3641 1.4154 28 1.4154C20.6564 1.4154 14.3897 4.01026 9.19997 9.20001C4.01023 14.3898 1.41538 20.6564 1.41538 28L1.56922 30.9231C2.1641 37.0359 4.70766 42.3282 9.19997 46.8C14.3897 52.0103 20.6564 54.6154 28 54.6154C35.3641 54.6154 41.6308 52.0103 46.8 46.8ZM28 6.86154C27.6513 6.86154 27.3436 6.72821 27.0769 6.46154C26.8103 6.19487 26.6769 5.88718 26.6769 5.53846C26.6769 5.18974 26.8103 4.88205 27.0769 4.61538C27.3436 4.34872 27.6513 4.21539 28 4.21539C28.3487 4.21539 28.6564 4.34872 28.9231 4.61538C29.1897 4.88205 29.3231 5.18974 29.3231 5.53846C29.3231 5.88718 29.1897 6.19487 28.9231 6.46154C28.6564 6.72821 28.3487 6.86154 28 6.86154ZM9.23077 15.6308C9.53846 15.8154 9.7333 16.0821 9.81536 16.4308C9.91792 16.8 9.87692 17.1385 9.69231 17.4462C9.52821 17.7539 9.26151 17.9487 8.89228 18.0308L7.90768 17.9077C7.59999 17.7436 7.39486 17.4769 7.29229 17.1077C7.21024 16.759 7.25127 16.4308 7.41538 16.1231C7.59999 15.8154 7.86665 15.6103 8.21537 15.5077L9.23077 15.6308ZM7.90768 38.0923L8.89228 37.9692C9.26151 38.0718 9.52821 38.2769 9.69231 38.5846C9.87692 38.8923 9.91792 39.2205 9.81536 39.5692C9.7333 39.9385 9.53846 40.2051 9.23077 40.3692L8.21537 40.4923C7.86665 40.4103 7.59999 40.2154 7.41538 39.9077C7.25127 39.6 7.21024 39.2615 7.29229 38.8923C7.39486 38.5436 7.59999 38.2769 7.90768 38.0923ZM27.0769 49.5385C27.3436 49.2718 27.6513 49.1385 28 49.1385C28.3487 49.1385 28.6564 49.2718 28.9231 49.5385C29.1897 49.8051 29.3231 50.1128 29.3231 50.4615C29.3231 50.8103 29.1897 51.118 28.9231 51.3846C28.6564 51.6513 28.3487 51.7846 28 51.7846C27.6513 51.7846 27.3436 51.6513 27.0769 51.3846C26.8103 51.118 26.6769 50.8103 26.6769 50.4615C26.6769 50.1128 26.8103 49.8051 27.0769 49.5385Z" fill="#9EBBC7"/>
</svg>
