<svg width="93" height="83" viewBox="0 0 93 83" fill="none" xmlns="http://www.w3.org/2000/svg">
    <path d="M75.75 3.09998L74.9 1.89996L58.8 9.19995L57 18L56.4 17.9V19.9H36.4V17.9L35.8 18L34 9.19995L17.9 1.89996L17.05 3.09998L16.9 3.34998L15.3 2.19995L16.25 0.799988C16.5167 0.366654 16.8834 0.1 17.3501 0L18.7001 0.0999756L34.8 7.39996C35.1 7.49996 35.35 7.68328 35.55 7.94995L35.9501 8.79999L37.8 17.9H55L56.8501 8.79999L57.25 7.94995C57.45 7.68328 57.7 7.49996 58 7.39996L74.1001 0.0999756L75.4501 0C75.9167 0.1 76.2834 0.366654 76.55 0.799988L77.5 2.19995L75.9 3.34998L75.75 3.09998ZM31.2001 50.55L28.6001 52.1L35.3501 76.65C35.5167 77.15 35.4667 77.6333 35.2001 78.1C34.9667 78.5666 34.6001 78.8833 34.1001 79.05L31.4 80L30.8501 78.05L33.4501 77.15L26.3 51.15L30.3 48.75L31.2001 50.55ZM62.55 48.75L66.5 51.15L59.3501 77.15L61.9501 78.05L61.4 80L58.7001 79.05C58.2001 78.8833 57.8334 78.5666 57.6001 78.1C57.3334 77.6333 57.2834 77.15 57.4501 76.65L64.2001 52.1L61.65 50.55L62.55 48.75Z" fill="#C4C4C4"/>
    <path d="M75.9 3.35022L77.5 2.2002L92.45 24.4002L92.8 25.3002L92.7 26.2002L71.95 81.6002C71.75 82.1002 71.4 82.4669 70.9 82.7002L69.4 82.8002L61.4 80.0002L61.95 78.0502L70.05 80.9002L81.35 50.8002L90.05 27.6002L90.8 25.5002L75.9 3.35022ZM15.3 2.2002L16.9 3.35022L2 25.5002L2.75 27.6002L11.45 50.8002L22.75 80.9002L30.85 78.0502L31.4 80.0002L23.4 82.8002L21.9 82.7002C21.4 82.4669 21.05 82.1002 20.85 81.6002L0.0999985 26.2002L0 25.3002C0.0666667 24.9669 0.183332 24.6669 0.349998 24.4002L15.3 2.2002Z" fill="#704423"/>
    <path d="M75.75 3.1001L75.9 3.3501L90.8 25.5001L90.05 27.6001L71.5 21.1501L67 39.1501L81.35 50.8001L70.05 80.9001L61.95 78.0501L70.05 48.8501L64.65 44.5001L66.1 41.5001L66.3 40.6001V26.2501L66.1 25.4001L65.55 24.7001L63 22.6501L65.9 10.4501L75.75 3.1001ZM16.9 3.3501L17.05 3.1001L26.9 10.4501L29.85 22.6501L27.25 24.7001L26.7 25.4001L26.5 26.2501V40.6001L26.7 41.5001L28.2 44.5001L22.75 48.8501L30.85 78.0501L22.75 80.9001L11.45 50.8001L25.8 39.1501L21.3 21.1501L2.75 27.6001L2 25.5001L16.9 3.3501Z" fill="#BB6C2E"/>
    <path d="M57 17.9999L58.8 9.19989L74.9 1.8999L75.75 3.09991L65.9 10.4499L63 22.6499L57.65 18.3499C57.45 18.1832 57.2334 18.0666 57 17.9999ZM17.05 3.09991L17.9 1.8999L34 9.19989L35.8 17.9999C35.5667 18.0666 35.35 18.1832 35.15 18.3499L29.8501 22.6499L26.9 10.4499L17.05 3.09991ZM36.4 19.8999H56.4V44.6999C56.3667 43.7666 56.0167 42.9666 55.3501 42.2999C54.6501 41.5666 53.7834 41.1999 52.75 41.1999H40.1001C39.0667 41.1999 38.2 41.5666 37.5 42.2999C36.8 42.9999 36.4334 43.8333 36.4 44.7999V19.8999ZM64.65 44.4999L70.05 48.8499L61.9501 78.0499L59.3501 77.1499L66.5 51.1499L62.55 48.7499L64.65 44.4999ZM30.3 48.7499L26.3 51.1499L33.4501 77.1499L30.8501 78.0499L22.75 48.8499L28.2001 44.4999L30.3 48.7499Z" fill="#EEEEEE"/>
    <path d="M56.4 19.8999L64.3 26.2499V40.5999L57 55.3499H35.85L28.5 40.5999V26.2499L36.4 19.8999V44.7999V44.8999V44.9999C36.4333 45.7333 36.65 46.3832 37.05 46.9499L37.5 47.4999C38.2 48.2333 39.0667 48.5999 40.1 48.5999H52.75C53.7833 48.5999 54.65 48.2333 55.35 47.4999L55.8 46.9999C56.1667 46.3999 56.3667 45.7333 56.4 44.9999V44.8999V44.6999V19.8999Z" fill="#DBDBDB"/>
    <path d="M56.4 19.8999V17.8999L57 17.9999C57.2333 18.0666 57.45 18.1832 57.65 18.3499L63 22.6499L65.55 24.6999L66.1 25.3999L66.3 26.2499V40.5999L66.1 41.4999L64.65 44.4999L62.55 48.7499L61.65 50.5499L58.8 56.2499L58.05 57.0499L57 57.3499H35.85C35.4833 57.3499 35.1333 57.2499 34.8 57.0499L34.05 56.2499L31.2 50.5499L30.3 48.7499L28.2 44.4999L26.7 41.4999L26.5 40.5999V26.2499L26.7 25.3999L27.25 24.6999L29.85 22.6499L35.15 18.3499C35.35 18.1832 35.5667 18.0666 35.8 17.9999L36.4 17.8999V19.8999L28.5 26.2499V40.5999L35.85 55.3499H57L64.3 40.5999V26.2499L56.4 19.8999Z" fill="#A1A1A1"/>
    <path d="M56.3999 44.7002V44.9002V45.0002C56.3666 45.7336 56.1666 46.4002 55.7999 47.0002L55.3499 47.5002C54.6499 48.2336 53.7832 48.6002 52.7499 48.6002H40.0999C39.0666 48.6002 38.1999 48.2336 37.4999 47.5002L37.0499 46.9502C36.6499 46.3835 36.4332 45.7336 36.3999 45.0002V44.9002V44.8002C36.4332 43.8336 36.7999 43.0002 37.4999 42.3002C38.1999 41.5669 39.0666 41.2002 40.0999 41.2002H52.7499C53.7832 41.2002 54.6499 41.5669 55.3499 42.3002C56.0166 42.9669 56.3666 43.7669 56.3999 44.7002Z" fill="#4A3C55"/>
    <path d="M81.35 50.7999L67 39.1499L71.5 21.1499L90.05 27.5999L81.35 50.7999ZM2.75 27.5999L21.3 21.1499L25.8 39.1499L11.45 50.7999L2.75 27.5999Z" fill="#A36331"/>
</svg>
