<svg width="99" height="75" viewBox="0 0 99 75" fill="none" xmlns="http://www.w3.org/2000/svg">
    <path d="M8.72857 37.0501L13.4786 39.3001L37.6786 25.6001L39.4786 26.8501L35.3286 29.2501L13.5786 41.5501L7.27856 38.5501L8.72857 37.0501ZM61.3786 25.6001L85.4786 39.3001C87.0786 38.5668 88.6619 37.8168 90.2286 37.0501L91.6786 38.5501L85.3786 41.5501L63.6786 29.2501L59.5286 26.8501L61.3786 25.6001ZM90.7286 58.0501L86.2786 60.2001L85.7786 60.4001L83.2786 60.8501V58.8001L85.3786 58.4001L91.6786 55.3501L90.7286 58.0501ZM65.6286 64.1501L63.0786 64.6501L61.8286 62.8001L65.6286 62.1001V64.1501ZM35.9286 64.6501L33.3786 64.1501V62.1001L37.1286 62.8001L35.9286 64.6501ZM15.6286 60.8501L13.2286 60.4001L12.7286 60.2001L8.27856 58.0501L7.27856 55.3501L13.5786 58.4001L15.6286 58.8001V60.8501Z" fill="#8EA8AD"/>
    <path d="M7.27864 55.35L5.02864 60.3L1.97864 33.15H4.22864L7.27864 38.55V55.35ZM45.1786 72.95L39.9786 64.45V42.95L43.8786 5.5H55.0786L58.9786 42.95V64.45L53.8286 72.95H45.5786H45.1786ZM56.8786 34.85L56.7286 33.45H42.2786L42.1286 34.85L41.1286 42.95H57.8286L56.8786 34.85ZM91.6786 38.55L94.6786 33.15H96.9786L93.9286 60.3L91.6786 55.35V38.55Z" fill="#71C937"/>
    <path d="M91.6786 38.5499L90.2286 37.0499L92.9286 32.1999C93.0952 31.8666 93.3452 31.6166 93.6786 31.4499L94.6786 31.1499H96.9786C97.3452 31.1499 97.6952 31.2499 98.0286 31.4499L98.7786 32.2999L98.9786 33.3999L95.9286 60.5499C95.8619 60.9832 95.6786 61.3666 95.3786 61.6999C95.0786 61.9999 94.7119 62.1999 94.2786 62.2999L92.9786 62.0499C92.5786 61.8499 92.2952 61.5499 92.1286 61.1499L90.7286 58.0499L91.6786 55.3499L93.9286 60.2999L96.9786 33.1499H94.6786L91.6786 38.5499ZM53.8286 74.9499H45.5786V72.9499H53.8286V74.9499ZM8.27857 58.0499L6.87857 61.1499L5.97857 62.0499L4.72857 62.2999L3.57857 61.6999C3.27857 61.3666 3.1119 60.9832 3.07857 60.5499L0.0285711 33.3999C-0.0380955 32.9999 0.011906 32.6332 0.178573 32.2999L0.928573 31.4499C1.26191 31.2499 1.61191 31.1499 1.97857 31.1499H4.22857C4.59524 31.1499 4.92857 31.2499 5.22857 31.4499L5.97857 32.1999L8.72857 37.0499L7.27857 38.5499L4.22857 33.1499H1.97857L5.02857 60.2999L7.27857 55.3499L8.27857 58.0499Z" fill="#619A3B"/>
    <path d="M13.5786 41.55L35.3286 29.25L33.3786 42.95V55.75L15.6286 52.5V53.45V58.8L13.5786 58.4V41.55ZM63.6786 29.25L85.3786 41.55V58.4L83.2786 58.8V53.45V52.5L65.6286 55.75V42.95L63.6786 29.25Z" fill="#D3E1E7"/>
    <path d="M7.27856 38.55L13.5786 41.55V58.4L7.27856 55.3501V38.55ZM15.6286 53.45V52.5L33.3786 55.75V56.75L28.9286 55.9L24.5286 55.1001L20.0786 54.25L15.6286 53.45ZM85.3786 41.55L91.6786 38.55V55.3501L85.3786 58.4V41.55ZM65.6286 56.75V55.75L83.2786 52.5V53.45L78.8786 54.25L74.4786 55.1001L70.0286 55.9L65.6286 56.75Z" fill="#B9CED7"/>
    <path d="M83.2785 60.8501L65.6285 64.15V62.1001L70.0285 61.25L74.4785 60.45L78.8785 59.65L83.2785 58.8V60.8501ZM33.3785 64.15L15.6285 60.8501V58.8L20.0785 59.65L24.5285 60.45L28.9285 61.25L33.3785 62.1001V64.15Z" fill="#BF9900"/>
    <path d="M15.6285 58.8V53.45L20.0785 54.25V59.6499L15.6285 58.8ZM24.5285 55.1L28.9285 55.8999V61.25L24.5285 60.45V55.1ZM70.0285 55.8999L74.4785 55.1V60.45L70.0285 61.25V55.8999ZM78.8785 54.25L83.2785 53.45V58.8L78.8785 59.6499V54.25Z" fill="#ECBD02"/>
    <path d="M78.8785 54.25V59.65L74.4785 60.45V55.1L78.8785 54.25ZM20.0785 54.25L24.5285 55.1V60.45L20.0785 59.65V54.25ZM28.9285 55.9L33.3785 56.75V62.1L28.9285 61.25V55.9ZM65.6285 62.1V56.75L70.0285 55.9V61.25L65.6285 62.1Z" fill="#FFCC00"/>
    <path d="M39.4785 26.85L43.0285 2H55.9785L59.5285 26.85L61.8285 42.95V62.8L55.5785 72.95H53.8285L58.9785 64.45V42.95L55.0785 5.5H43.8785L39.9785 42.95V64.45L45.1785 72.95H43.4285L37.1285 62.8V42.95L39.4785 26.85Z" fill="#F2F2F2"/>
    <path d="M39.4786 26.85L37.6786 25.6L41.0786 1.75C41.1453 1.25 41.3619 0.833333 41.7286 0.5C42.0953 0.166667 42.5286 0 43.0286 0H55.9786C56.4786 0 56.9119 0.166667 57.2786 0.5C57.6453 0.833333 57.8786 1.25 57.9786 1.75L61.3786 25.6L59.5286 26.85L55.9786 2H43.0286L39.4786 26.85ZM63.0786 64.65L57.2786 74L56.5786 74.7L55.5786 74.95H53.8286V72.95H55.5786L61.8286 62.8L63.0786 64.65ZM45.5786 74.95H43.4286L42.4786 74.7L41.7286 74L35.9286 64.65L37.1286 62.8L43.4286 72.95H45.1786H45.5786V74.95Z" fill="#CBCBCB"/>
    <path d="M35.3285 29.2501L39.4785 26.8501L37.1285 42.9501V62.8001L33.3785 62.1001V56.7501V55.7501V42.9501L35.3285 29.2501ZM61.8285 62.8001V42.9501L59.5285 26.8501L63.6785 29.2501L65.6285 42.9501V55.7501V56.7501V62.1001L61.8285 62.8001Z" fill="#BDD6DB"/>
    <path d="M42.1285 34.85L42.2785 33.45H56.7285L56.8785 34.85H42.1285Z" fill="#94DB64"/>
    <path d="M42.1285 34.8501H56.8785L57.8285 42.9501H41.1285L42.1285 34.8501Z" fill="#4A3C55"/>
</svg>
