<svg width="99" height="75" viewBox="0 0 99 75" fill="none" xmlns="http://www.w3.org/2000/svg">
    <path d="M7.27864 55.35L5.02864 60.3L1.97864 33.15H4.22864L7.27864 38.55V55.35ZM37.1286 62.8V42.95L39.4786 26.85L43.0286 2H55.9786L59.5286 26.85L61.8286 42.95V62.8L55.5786 72.95H53.8286L58.9786 64.45V42.95L55.0786 5.5H43.8786L39.9786 42.95V64.45L45.1786 72.95H43.4286L37.1286 62.8ZM91.6786 38.55L94.6786 33.15H96.9786L93.9286 60.3L91.6786 55.35V38.55ZM42.1286 34.85L42.2786 33.45H56.7286L56.8786 34.85H42.1286Z" fill="#F2F2F2"/>
    <path d="M8.27857 58.05L6.87857 61.15L5.97857 62.05L4.72857 62.3L3.57857 61.7C3.27857 61.3667 3.1119 60.9833 3.07857 60.55L0.0285711 33.4C-0.0380955 33 0.011906 32.6333 0.178573 32.3L0.928573 31.45C1.26191 31.25 1.61191 31.15 1.97857 31.15H4.22857C4.59524 31.15 4.92857 31.25 5.22857 31.45L5.97857 32.2L8.72857 37.05L7.27857 38.55L4.22857 33.15H1.97857L5.02857 60.3L7.27857 55.35L8.27857 58.05ZM37.6786 25.6L41.0786 1.75C41.1452 1.25 41.3619 0.833333 41.7286 0.5C42.0952 0.166667 42.5286 0 43.0286 0H55.9786C56.4786 0 56.9119 0.166667 57.2786 0.5C57.6452 0.833333 57.8786 1.25 57.9786 1.75L61.3786 25.6L59.5286 26.85L55.9786 2H43.0286L39.4786 26.85L37.6786 25.6ZM90.2286 37.05L92.9286 32.2C93.0952 31.8667 93.3452 31.6167 93.6786 31.45L94.6786 31.15H96.9786C97.3452 31.15 97.6952 31.25 98.0286 31.45L98.7786 32.3L98.9786 33.4L95.9286 60.55C95.8619 60.9833 95.6786 61.3667 95.3786 61.7C95.0786 62 94.7119 62.2 94.2786 62.3L92.9786 62.05C92.5786 61.85 92.2952 61.55 92.1286 61.15L90.7286 58.05L91.6786 55.35L93.9286 60.3L96.9786 33.15H94.6786L91.6786 38.55L90.2286 37.05ZM63.0786 64.65L57.2786 74L56.5786 74.7L55.5786 74.95H43.4286L42.4786 74.7L41.7286 74L35.9286 64.65L37.1286 62.8L43.4286 72.95H45.1786H53.8286H55.5786L61.8286 62.8L63.0786 64.65Z" fill="#CBCBCB"/>
    <path d="M15.6285 53.45L20.0785 54.2499V59.6499L15.6285 58.7999V53.45ZM24.5285 55.0999L28.9285 55.8999V61.2499L24.5285 60.45V55.0999ZM83.2785 53.45V58.7999L78.8785 59.6499V54.2499L83.2785 53.45ZM70.0285 55.8999L74.4785 55.0999V60.45L70.0285 61.2499V55.8999Z" fill="#ECBD02"/>
    <path d="M70.0286 55.9001L65.6286 56.7501V62.1001L61.8286 62.8001V42.9501L59.5286 26.8501L63.6786 29.2501L65.6286 42.9501V55.7501L83.2786 52.5001V53.4501L78.8786 54.2501L74.4786 55.1001L70.0286 55.9001ZM20.0786 54.2501L15.6286 53.4501V52.5001L33.3786 55.7501V42.9501L35.3286 29.2501L39.4786 26.8501L37.1286 42.9501V62.8001L33.3786 62.1001V56.7501L28.9286 55.9001L24.5286 55.1001L20.0786 54.2501ZM13.5786 41.5501V58.4001L7.27856 55.3501V38.5501L13.5786 41.5501ZM85.3786 41.5501L91.6786 38.5501V55.3501L85.3786 58.4001V41.5501Z" fill="#C94D2A"/>
    <path d="M20.0785 59.65V54.25L24.5285 55.1V60.45L20.0785 59.65ZM28.9285 55.9L33.3785 56.75V62.1L28.9285 61.25V55.9ZM65.6285 62.1V56.75L70.0285 55.9V61.25L65.6285 62.1ZM74.4785 55.1L78.8785 54.25V59.65L74.4785 60.45V55.1Z" fill="#FFCC00"/>
    <path d="M15.6286 53.45V58.8L13.5786 58.4V41.55L35.3286 29.25L33.3786 42.95V55.75L15.6286 52.5V53.45ZM63.6786 29.25L85.3786 41.55V58.4L83.2786 58.8V53.45V52.5L65.6286 55.75V42.95L63.6786 29.25Z" fill="#DE532C"/>
    <path d="M63.6786 29.2501L59.5286 26.8501L61.3786 25.6001L85.4786 39.3001C87.0786 38.5667 88.6619 37.8167 90.2286 37.0501L91.6786 38.5501L85.3786 41.5501L63.6786 29.2501ZM8.72857 37.0501L13.4786 39.3001L37.6786 25.6001L39.4786 26.8501L35.3286 29.2501L13.5786 41.5501L7.27856 38.5501L8.72857 37.0501ZM90.7286 58.0501L86.2786 60.2001L85.7786 60.4001L83.2786 60.8501V58.8001L85.3786 58.4001L91.6786 55.3501L90.7286 58.0501ZM65.6286 64.1501L63.0786 64.6501L61.8286 62.8001L65.6286 62.1001V64.1501ZM35.9286 64.6501L33.3786 64.1501V62.1001L37.1286 62.8001L35.9286 64.6501ZM15.6286 60.8501L13.2286 60.4001L12.7286 60.2001L8.27856 58.0501L7.27856 55.3501L13.5786 58.4001L15.6286 58.8001V60.8501Z" fill="#A13E22"/>
    <path d="M15.6285 60.8501V58.8L20.0785 59.6501L24.5285 60.4501L28.9285 61.2501L33.3785 62.1001V64.1501L15.6285 60.8501ZM83.2785 60.8501L65.6285 64.1501V62.1001L70.0285 61.2501L74.4785 60.4501L78.8785 59.6501L83.2785 58.8V60.8501Z" fill="#BF9900"/>
    <path d="M56.8786 34.85L56.7286 33.45H42.2786L42.1286 34.85L41.1286 42.95H57.8286L56.8786 34.85ZM45.1786 72.95L39.9786 64.45V42.95L43.8786 5.5H55.0786L58.9786 42.95V64.45L53.8286 72.95H45.1786Z" fill="#D7D7D7"/>
    <path d="M42.1285 34.8501H56.8785L57.8285 42.9501H41.1285L42.1285 34.8501Z" fill="#4A3C55"/>
</svg>
