<svg xmlns="http://www.w3.org/2000/svg" version="1.1" xmlns:xlink="http://www.w3.org/1999/xlink" xmlns:svgjs="http://svgjs.com/svgjs" width="512" height="512" x="0" y="0" viewBox="0 0 512 512" style="enable-background:new 0 0 512 512" xml:space="preserve" class="">
  <g>
    <g xmlns="http://www.w3.org/2000/svg">
      <g>
        <g>
          <g>
            <path d="m478.16 366.61c.09 8.01-.35 16.02-1.34 23.99-.309 2.516-7.052 4.439-7.468 6.943-.406 2.442 5.517 5.467 5.008 7.896-1.61 7.71-3.74 15.33-6.38 22.81-.828 2.344-8.797 1.669-9.725 3.985-.945 2.359 5.149 7.709 4.095 10.035-8.63 19.1-20.8 37-36.5 52.7-9.23-9.22-18.46-18.45-27.68-27.68 10.66-10.66 19.24-22.63 25.72-35.38 1.307-2.564 8.338-3.782 9.475-6.406.872-2.013-4.114-5.42-3.345-7.464 1.99-5.26 3.65-10.62 4.98-16.05.575-2.345 8.53-4.408 8.98-6.777.489-2.57-6.538-5.447-6.2-8.034.77-5.69 1.18-11.41 1.22-17.14.03-2.479 7.04-5.226 6.935-7.706-.107-2.523-7.333-4.778-7.585-7.294-.56-5.79-1.48-11.55-2.78-17.25-.527-2.35 3.434-6.526 2.78-8.854-.699-2.487-6.023-3.123-6.87-5.577-6.66-19.48-17.77-37.77-33.31-53.32 9.22-9.23 18.45-18.46 27.68-27.68 20.57 20.57 35.08 44.92 43.52 70.81.682 2.1-6.059 6.14-5.455 8.258.768 2.693 8.857 3.472 9.495 6.192 1.87 7.92 3.18 15.94 3.95 24.01.239 2.532-4.084 5.316-3.95 7.856.13 2.458 4.72 4.669 4.75 7.127z" fill="#c2eafb" data-original="#c2eafb"></path>
          </g>
        </g>
        <path d="m430.71 504.5h-167.21l-7.5-10-7.5 10h-167.21c-5.76 0-10.32-4.85-9.99-10.59 5.49-97.24 86.09-174.41 184.7-174.41s179.21 77.17 184.7 174.41c.33 5.74-4.23 10.59-9.99 10.59z" fill="#fff8e6" data-original="#fff8e6" class=""></path>
        <path d="m377.277 351.808c22.194 17.636 19.253 52.389-5.567 66.086-35.034 19.333-74.582 29.606-115.71 29.606s-80.676-10.273-115.71-29.606c-24.82-13.696-27.761-48.45-5.567-66.086 33.376-26.522 75.581-42.308 121.277-42.308s87.901 15.786 121.277 42.308z" fill="#7fb0e4" data-original="#7fb0e4"></path>
        <path d="m256 361c-47.34 0-89.74-21.54-117.92-55.33-25.613-34.983-50.525-50.889-74.59-43.77 23.69 84.02 100.91 145.6 192.51 145.6s168.82-61.58 192.51-145.6c-28.639-9.326-53.294 6.58-74.59 43.77-28.18 33.79-70.58 55.33-117.92 55.33z" fill="#fff8e6" data-original="#fff8e6" class=""></path>
        <path d="m66 157.5v100l-24.851-6.213c-8.903-2.226-15.149-10.225-15.149-19.403v-48.769c0-9.177 6.246-17.177 15.149-19.403z" fill="#7fb0e4" data-original="#7fb0e4"></path>
        <path d="m446 157.5v100l24.851-6.213c8.903-2.226 15.149-10.225 15.149-19.403v-48.769c0-9.177-6.246-17.177-15.149-19.403z" fill="#7fb0e4" data-original="#7fb0e4"></path>
        <g>
          <path d="m395.71 227.56c0 80.24-62.55 145.29-139.71 145.29h-.01c-6.01-4.71-39.222-22.159-44.672-27.139-64.95-59.32-102.596-82.932-55.036-164.302 5.859-10.009 48.276-80.196 54.776-91.455 14.104-4.984 29.221-7.694 44.942-7.694 77.16 0 139.71 65.06 139.71 145.3z" fill="#f5dbcd" data-original="#f5dbcd" class=""></path>
          <path d="m255.994 372.853c-77.16 0-139.7-65.05-139.7-145.29 0-63.891 39.652-118.154 94.761-137.618-6.504 11.264 28.362 23.806 22.509 33.819-47.564 81.367-38.389 168.551 26.569 227.866 5.45 4.976-10.153 16.508-4.139 21.223z" fill="#f0c9bc" data-original="#f0c9bc" class=""></path>
        </g>
        <g>
          <g fill="#ffa1ac">
            <ellipse cx="176.443" cy="292.291" rx="29.355" ry="23.377" fill="#ffa1ac" data-original="#ffa1ac" class=""></ellipse>
            <ellipse cx="335.557" cy="292.291" rx="29.355" ry="23.377" fill="#ffa1ac" data-original="#ffa1ac" class=""></ellipse>
          </g>
        </g>
        <path d="m412.794 195.274s-34.719-165.437-156.794-165.437c-116.522 0-156.961 165.063-156.961 165.063l32.929 32.929c6.3 6.3 17.071 1.838 17.071-7.071v-19.805c0-19.73 18.719-34.088 37.775-28.975l30.282 8.126c25.455 6.831 52.261 6.833 77.718.008l30.378-8.144c19.055-5.109 37.769 9.249 37.769 28.977v19.885c0 8.899 10.751 13.365 17.056 7.086z" fill="#cc9e83" data-original="#cc9e83" class=""></path>
        <path d="m326 377.5h-140l8.944-17.889c6.776-13.551 20.626-22.111 35.777-22.111h50.557c15.151 0 29.001 8.56 35.777 22.111z" fill="#fff8e6" data-original="#fff8e6" class=""></path>
        <path d="m456 207.5c0 18.86-2.61 37.1-7.49 54.39v.01l-74.59 43.77 27.1-144.73s54.98 36.25 54.98 46.56z" fill="#fff1cf" data-original="#fff1cf"></path>
        <path d="m138.08 305.67-74.59-43.77c-4.88-17.29-7.49-35.54-7.49-54.4 0-10.31 54.98-46.56 54.98-46.56z" fill="#fff1cf" data-original="#fff1cf"></path>
        <g>
          <path d="m456 207.5c-73.3-67.12-146.6-97.35-219.9-90.67-37.814-9.33-59.657-20.678-59.657-44.008 0-15.17 17.108-46.759 42.817-61.952 11.91-2.21 24.19-3.37 36.74-3.37 110.46 0 200 89.54 200 200z" fill="#889cb0" data-original="#889cb0"></path>
          <path d="m236.1 116.83c-60.04 5.47-120.07 35.69-180.1 90.67 0-97.91 70.35-179.38 163.26-196.63-8.46 13.24-13.12 27.71-13.12 42.88 0 23.33 11.03 45.03 29.96 63.08z" fill="#7a8fa5" data-original="#7a8fa5"></path>
        </g>
      </g>
      <g>
        <g>
          <path d="m193.551 277.287c-4.142 0-7.5-3.358-7.5-7.5v-12c0-4.142 3.358-7.5 7.5-7.5s7.5 3.358 7.5 7.5v12c0 4.142-3.358 7.5-7.5 7.5z" fill="#000000" data-original="#000000" class=""></path>
          <path d="m318.449 277.287c-4.142 0-7.5-3.358-7.5-7.5v-12c0-4.142 3.358-7.5 7.5-7.5s7.5 3.358 7.5 7.5v12c0 4.142-3.358 7.5-7.5 7.5z" fill="#000000" data-original="#000000" class=""></path>
          <path d="m256 284.431c-8.478 0-16.54-3.671-22.119-10.073-2.721-3.123-2.396-7.86.727-10.582 3.123-2.721 7.86-2.396 10.582.727 2.729 3.132 6.669 4.928 10.81 4.928s8.081-1.796 10.81-4.928c2.721-3.123 7.458-3.448 10.582-.727 3.123 2.722 3.448 7.459.727 10.582-5.579 6.401-13.641 10.073-22.119 10.073z" fill="#000000" data-original="#000000" class=""></path>
        </g>
        <path d="m472.673 258.565c12.263-3.072 20.827-14.046 20.827-26.685v-48.76c0-12.639-8.564-23.613-20.833-26.687l-16.626-4.152c-24.236-87.698-104.738-152.281-200.041-152.281s-175.805 64.583-200.042 152.281l-16.631 4.154c-12.263 3.072-20.827 14.046-20.827 26.685v48.76c0 12.639 8.564 23.613 20.833 26.687l16.626 4.152c10.682 38.651 32.292 72.812 61.282 98.933-2.254 4.49-3.767 9.314-4.499 14.275-29.125 32.437-46.478 74.085-48.929 117.554-.275 4.793 1.457 9.543 4.753 13.034 3.291 3.485 7.929 5.485 12.724 5.485h349.42c4.795 0 9.433-2 12.725-5.486 3.296-3.49 5.028-8.241 4.753-13.026-.216-3.837-.549-7.659-.996-11.462 23.811-30.914 37.065-67.882 38.372-107.124 1.296-38.914-9.256-76.389-30.543-108.618.35-1.184.69-2.373 1.02-3.565zm-12.811-89.869 9.166 2.289c5.577 1.397 9.473 6.388 9.473 12.135v48.76c0 5.748-3.896 10.738-9.467 12.134l-9.171 2.29c2.388-12.574 3.638-25.546 3.638-38.804s-1.251-26.23-3.639-38.804zm-407.724 77.608-9.166-2.289c-5.577-1.397-9.473-6.388-9.473-12.135v-48.76c0-5.748 3.896-10.738 9.467-12.134l9.171-2.29c-2.387 12.574-3.637 25.546-3.637 38.804s1.25 26.23 3.638 38.804zm389.912 10.69-57.729 33.876 21.43-114.437c14.259 10.052 28.516 21.515 42.72 34.357-.268 15.943-2.485 31.421-6.421 46.204zm-186.05-241.994c100.302 0 182.932 77.109 191.726 175.161-36.236-30.973-72.891-53.353-109.158-66.624-3.89-1.423-8.197.576-9.621 4.466-1.423 3.89.576 8.197 4.466 9.621 19.475 7.126 39.116 17.05 58.787 29.682l-8.721 46.573-8.749 8.716c-1.034 1.029-2.155.78-2.733.541-.701-.292-1.537-.928-1.537-2.305v-19.89c0-11.75-5.348-22.593-14.672-29.747-9.325-7.154-21.186-9.512-32.539-6.468l-30.383 8.141c-24.136 6.477-49.663 6.474-73.824-.01l-30.285-8.119c-11.35-3.049-23.207-.698-32.534 6.454-9.331 7.154-14.683 18.001-14.683 29.76v19.81c0 1.454-.966 2.071-1.542 2.31s-1.696.486-2.725-.542l-8.776-8.775-8.697-46.443c20.697-13.29 41.371-23.589 61.868-30.8 39.551-13.913 79.634-16.716 119.134-8.333 4.049.857 8.033-1.728 8.894-5.779s-1.728-8.034-5.779-8.894c-42.234-8.964-85.039-5.985-127.226 8.855-37.367 13.144-75.116 35.92-112.417 67.802 8.794-98.054 91.424-175.163 191.726-175.163zm110.24 221.986c2.183.907 4.469 1.349 6.733 1.349 2.096 0 4.174-.379 6.135-1.116l-12.195 65.124c-14.761 17.23-33.355 30.847-54.096 39.643-8.643-7.671-19.87-11.986-31.537-11.986h-50.56c-11.667 0-22.894 4.315-31.536 11.985-20.742-8.796-39.336-22.413-54.096-39.644l-12.208-65.193c4.072 1.535 8.655 1.521 12.859-.22 6.562-2.718 10.802-9.064 10.802-16.168v-19.81c0-7.055 3.211-13.563 8.81-17.856 5.595-4.289 12.707-5.701 19.519-3.87l30.288 8.12c26.702 7.167 54.919 7.17 81.595.011l30.381-8.14c6.813-1.828 13.93-.413 19.525 3.88 5.594 4.292 8.802 10.796 8.802 17.845v19.89c-.001 7.093 4.23 13.434 10.779 16.156zm-302.711-26.196c14.202-12.84 28.459-24.302 42.72-34.354l21.429 114.434-57.728-33.876c-3.936-14.783-6.153-30.261-6.421-46.204zm13.572 67.793 56.071 32.903c17.503 20.638 39.979 36.635 65.083 46.303.887.341 1.798.503 2.694.503 2.166 0 4.244-.945 5.667-2.584 6.15-6.806 14.929-10.708 24.105-10.708h50.56c9.174 0 17.952 3.9 24.102 10.705 1.423 1.641 3.502 2.587 5.669 2.587.896 0 1.808-.162 2.694-.503 25.103-9.669 47.58-25.665 65.083-46.303l56.071-32.903c-28.338 71.066-97.849 121.417-178.9 121.417s-150.562-50.351-178.899-121.417zm347.361 132.792c-7-12.666-15.44-24.575-25.204-35.449-.733-4.961-2.245-9.785-4.499-14.275 11.282-10.165 21.446-21.548 30.283-33.939 8.922 27.265 8.708 56.574-.58 83.663zm-230.558 35.819c17.77 4.563 36.1 7.144 54.596 7.694v42.112h-167.21c-.938 0-1.542-.491-1.819-.784-.279-.295-.738-.931-.683-1.883 1.981-35.132 14.519-68.972 35.671-96.934 3.64 11.588 11.42 21.108 22.201 27.055 7.387 4.085 15.135 7.849 23.03 11.185.953.403 1.942.594 2.916.594 2.924 0 5.702-1.72 6.912-4.583 1.613-3.815-.173-8.215-3.989-9.828-7.412-3.132-14.682-6.664-21.617-10.499-8.109-4.473-13.729-11.9-15.823-20.913-1.469-6.323-1.039-12.849 1.133-18.746 35.086 27.157 79.078 43.336 126.778 43.336s91.692-16.179 126.778-43.337c2.172 5.897 2.603 12.423 1.133 18.746-2.094 9.013-7.714 16.44-15.826 20.915-33.979 18.76-72.737 28.676-112.085 28.676-19.777 0-39.414-2.468-58.364-7.334-4.015-1.03-8.1 1.387-9.13 5.398-1.03 4.013 1.387 8.1 5.398 9.13zm238.625 49.022c-.277.293-.881.784-1.819.784h-167.21v-42.113c39.29-1.183 77.804-11.643 111.833-30.43 10.788-5.95 18.569-15.47 22.209-27.058 21.151 27.962 33.69 61.803 35.671 96.942.054.944-.405 1.579-.684 1.875zm11.038-35.037c-2.059-8.894-4.748-17.624-8.037-26.119l4.459 1.199c5.022 1.351 10.043 2.702 15.063 4.05-3.319 7.189-7.152 14.159-11.485 20.87zm17.201-34.866c-5.626-1.511-11.253-3.025-16.881-4.539l-6.582-1.77c2.128-5.697 3.891-11.491 5.288-17.348 8.094.711 16.187 1.42 24.281 2.127-1.564 7.326-3.603 14.514-6.106 21.53zm9.805-51.91c-.174 5.228-.579 10.411-1.21 15.54-8.011-.7-16.023-1.401-24.034-2.104.809-6.127 1.227-12.292 1.256-18.461 8.027-.699 16.054-1.401 24.08-2.104.018 2.369-.012 4.746-.092 7.129zm-.661-22.121c-8.008.702-16.017 1.402-24.026 2.1-.611-6.22-1.621-12.413-3.031-18.542 7.789-2.094 15.578-4.189 23.363-6.287 1.738 7.453 2.973 15.041 3.694 22.729zm-7.743-37.173c-7.803 2.103-15.609 4.203-23.417 6.302-1.074-3.155-2.258-6.285-3.553-9.384 5.129-8.759 9.634-17.925 13.454-27.438 5.529 9.76 10.045 19.971 13.516 30.52z" fill="#000000" data-original="#000000" class=""></path>
        <path d="m256 385c-4.142 0-7.5-3.358-7.5-7.5v-10c0-4.142 3.358-7.5 7.5-7.5s7.5 3.358 7.5 7.5v10c0 4.142-3.358 7.5-7.5 7.5z" fill="#000000" data-original="#000000" class=""></path>
        <path d="m286 385c-4.142 0-7.5-3.358-7.5-7.5v-10c0-4.142 3.358-7.5 7.5-7.5s7.5 3.358 7.5 7.5v10c0 4.142-3.358 7.5-7.5 7.5z" fill="#000000" data-original="#000000" class=""></path>
        <path d="m226 385c-4.142 0-7.5-3.358-7.5-7.5v-10c0-4.142 3.358-7.5 7.5-7.5s7.5 3.358 7.5 7.5v10c0 4.142-3.358 7.5-7.5 7.5z" fill="#000000" data-original="#000000" class=""></path>
        <path d="m171.282 482h-30c-4.142 0-7.5-3.358-7.5-7.5s3.358-7.5 7.5-7.5h30c4.142 0 7.5 3.358 7.5 7.5s-3.358 7.5-7.5 7.5z" fill="#000000" data-original="#000000" class=""></path>
      </g>
    </g>
  </g>
</svg>