<svg width="45" height="36" viewBox="0 0 45 36" fill="none" xmlns="http://www.w3.org/2000/svg">
    <path d="M0 18.7481H1.2016L1.2016 19.0067L8.98197 21.1678L9.19226 21.2601L8.35113 21.7958L0.720959 19.6716C0.500666 19.6224 0.330444 19.53 0.210284 19.3946C0.0700971 19.2837 0 19.1544 0 19.0067L0 18.7481ZM1.2016 17.2519H0L0 16.9933C0 16.8456 0.0700971 16.7101 0.210284 16.587L0.720959 16.3099L8.35113 14.2042L8.98197 14.8322L1.2016 16.9933V17.2519ZM39.3825 9.75269L44.6696 12.9851C44.8899 13.1329 45 13.3114 45 13.5208V22.4792C45 22.6886 44.8899 22.861 44.6696 22.9964L39.3825 26.2473L38.1809 25.9333L43.7984 22.4792V13.5208L38.1809 10.0667L39.3825 9.75269Z" fill="#CBCBCB"/>
    <path d="M8.98191 21.1677L1.20154 19.0066V18.748L32.4132 24.825L39.4726 22.4237V13.5761L32.4132 11.1749L1.20154 17.2518V16.9932L8.98191 14.8321L34.4559 7.7762L36.5286 9.05069L38.1808 10.0666L43.7983 13.5207V22.4791L38.1808 25.9332L36.5286 26.9491L34.4559 28.2236L8.98191 21.1677Z" fill="#F2F2F2"/>
    <path d="M1.2016 18.7481H0L0 17.2519H1.2016V18.7481ZM32.0227 1.86554L35.2971 0.166199C35.5174 0.0553703 35.7777 -4.57764e-05 36.0781 -4.57764e-05H38.9019C39.2423 -4.57764e-05 39.5327 0.067688 39.773 0.20314C39.9933 0.35091 40.1035 0.529457 40.1035 0.738796V2.67825V2.78909L38.9019 2.67825V0.738796H36.0781L33.5247 2.06871L32.0227 1.86554ZM40.0734 33.1739L40.1035 33.3217V35.2612C40.1035 35.4705 39.9933 35.6429 39.773 35.7783C39.5327 35.9261 39.2423 36 38.9019 36H36.0781C35.7777 36 35.5174 35.9384 35.2971 35.8153L32.1128 34.1529L33.5247 33.9312L36.0781 35.2612H38.9019V33.3217L40.0734 33.1739Z" fill="#619A3B"/>
    <path d="M8.3512 21.796L9.19232 21.2603L14.1489 23.8462L33.5248 33.9314L32.1129 34.1531L8.3512 21.796ZM8.3512 14.2044L32.0228 1.86572L33.5248 2.06889L14.1489 12.1541L8.98204 14.8324L8.3512 14.2044Z" fill="#8EA8AD"/>
    <path d="M9.19222 21.2602L8.98193 21.1678L34.4559 28.2238L36.5287 26.9492V28.4823L34.3658 29.8123L14.1488 23.8461L9.19222 21.2602ZM14.1488 12.154L34.3658 6.1878L36.5287 7.51772V9.05081L34.4559 7.77632L8.98193 14.8323L14.1488 12.154Z" fill="#BDD6DB"/>
    <path d="M1.20154 18.7481L1.20154 17.252L32.4132 11.175L39.4726 13.5762V22.4239L32.4132 24.8251L1.20154 18.7481ZM19.8564 21.2048L20.4572 21.3341V14.666L19.8564 14.7768L6.48859 17.1412V18.8405L19.8564 21.2232V21.2048ZM38.9018 2.67832L38.1808 2.58597L36.5286 2.40126L33.5246 2.06878L36.078 0.738865H38.9018V2.67832ZM36.5286 33.5988L38.1808 33.4141L38.9018 33.3218V35.2612H36.078L33.5246 33.9313L36.5286 33.5988Z" fill="#71C937"/>
    <path d="M19.8565 14.7768L7.69025 17.1411V18.8404L19.8565 21.2047V21.2231L6.48865 18.8404V17.1411L19.8565 14.7768Z" fill="#94DB64"/>
    <path d="M19.8564 14.7768L20.4572 14.6659V21.334L19.8564 21.2047L7.69019 18.8404V17.1411L19.8564 14.7768Z" fill="#4A3C55"/>
    <path d="M40.1035 2.7891L39.8932 3.08463L39.3825 3.34323V9.75268L38.1809 10.0667V8.53358V2.58591L38.9019 2.67826L40.1035 2.7891ZM39.3825 26.2473V32.6383L39.8932 32.9153L40.0734 33.1739L38.9019 33.3217L38.1809 33.4141V27.4664V25.9333L39.3825 26.2473Z" fill="#BF9900"/>
    <path d="M38.1809 2.58577V8.53344L36.5287 7.51753V2.40105L38.1809 2.58577ZM38.1809 33.4139L36.5287 33.5986V28.4822L38.1809 27.4662V33.4139Z" fill="#FFCC00"/>
    <path d="M36.5288 7.51782L34.3659 6.1879L14.1489 12.1541L33.5248 2.06886L36.5288 2.40134V7.51782ZM36.5288 28.4824V33.5989L33.5248 33.9314L14.1489 23.8462L34.3659 29.8124L36.5288 28.4824Z" fill="#D3E1E7"/>
    <path d="M36.5287 28.4824V26.9493L38.1809 25.9334V27.4665L36.5287 28.4824ZM38.1809 8.53371V10.0668L36.5287 9.05089V7.5178L38.1809 8.53371Z" fill="#ECBD02"/>
</svg>
