<svg width="21" height="20" viewBox="0 0 21 20" fill="none" xmlns="http://www.w3.org/2000/svg">
    <path d="M2.89111 2.87217C2.9402 2.82307 2.99981 2.79151 3.06995 2.77748L13.6749 0.0210416C13.7521 -0.00701385 13.8292 -0.00701385 13.9064 0.0210416L14.0957 0.136768L20.5134 7.25934L20.6081 7.45923L20.5976 7.68017L16.8522 18.6428L16.7154 18.8322C16.6523 18.8883 16.5786 18.9199 16.4945 18.9269L6.4261 20L6.22619 19.9684L6.05787 19.8422L0.0925677 12.4461L0.00842205 12.2672C-0.00560566 12.1971 -0.00211414 12.1305 0.0189274 12.0673L2.77537 3.06155L2.8385 2.9353L2.89111 2.87217ZM3.17516 3.17728L0.418722 12.1831L6.384 19.5792L16.4524 18.506L20.1978 7.5434L13.7801 0.42083L3.17516 3.17728Z" fill="#737E83"/>
    <path d="M7.73067 4.73432L8.82482 5.79692L9.46659 4.35557L12.8017 3.62964L17.252 7.81691L14.8532 15.8337L13.2646 16.0231L11.8232 14.2661L10.929 16.2967L7.18359 16.728L5.72119 14.6449L5.9316 13.7927L4.85849 13.414L3.35401 11.2888L5.40556 5.2288L7.73067 4.73432ZM12.8227 10.2156L13.98 9.42659L13.717 8.1641L12.5071 7.79587L11.7706 9.21617L12.8227 10.2156Z" fill="#9AAAB1"/>
    <path d="M12.8227 10.2157L11.7706 9.21627L12.5071 7.79596L13.717 8.16419L13.98 9.42669L12.8227 10.2157ZM7.73067 4.73442L5.40556 5.2289L3.35401 11.2889L4.85849 13.4141L5.9316 13.7928L5.72119 14.645L7.18359 16.7281L10.929 16.2968L11.8232 14.2662L13.2646 16.0232L14.8532 15.8338L17.252 7.817L12.8017 3.62974L9.46659 4.35567L8.82482 5.79702L7.73067 4.73442ZM3.17516 3.17734L13.7801 0.420898L20.1978 7.54347L16.4524 18.5061L6.384 19.5792L0.418724 12.1831L3.17516 3.17734Z" fill="#8B979C"/>
</svg>
