<svg width="11" height="11" viewBox="0 0 11 11" fill="none" xmlns="http://www.w3.org/2000/svg">
    <path d="M1.25238 0C1.60329 0 1.89975 0.121003 2.14176 0.363008L5.51772 3.75713L8.89369 0.381165C9.1357 0.13916 9.42612 0.0121003 9.76492 0C10.1158 0.0121003 10.4123 0.13916 10.6543 0.381165C10.8963 0.62317 11.0112 0.907529 10.9991 1.23424C10.9991 1.58514 10.8781 1.88159 10.6361 2.1236L7.26016 5.49958L10.6543 8.89369C10.8963 9.1357 11.0112 9.42007 10.9991 9.74678C10.9991 10.1098 10.8842 10.4062 10.6543 10.6361C10.4123 10.8781 10.1098 10.9991 9.74678 10.9991C9.43217 11.0112 9.15385 10.8963 8.91184 10.6543L5.51772 7.26016L2.12361 10.6361C1.8816 10.8781 1.59119 10.9931 1.25238 10.981C0.913574 10.9931 0.623159 10.8781 0.381154 10.6361C0.139149 10.3941 0.018146 10.0977 0.018146 9.74678C0.018146 9.42007 0.139149 9.1357 0.381154 8.89369L3.77529 5.51772L0.399322 2.1236C0.157317 1.88159 0.0242005 1.59119 0 1.25238C0.0121003 0.901474 0.139149 0.605013 0.381154 0.363008C0.611059 0.133103 0.901474 0.0121003 1.25238 0Z" fill="white"/>
</svg>
