<svg width="20" height="16" viewBox="0 0 20 16" fill="none" xmlns="http://www.w3.org/2000/svg">
    <path d="M7.9772 5.42546L8.69453 0.404175H11.3113L12.0286 5.42546L12.4933 8.67869V12.6897L11.2304 14.7406H10.8768L11.9174 13.0231V8.67869L11.1294 1.1114H8.86628L8.07823 8.67869V13.0231L9.12896 14.7406H8.77535L7.50235 12.6897V8.67869L7.9772 5.42546Z" fill="#F2F2F2"/>
    <path d="M7.9772 5.42542L7.61348 5.17284L8.3005 0.353612C8.31397 0.25258 8.35775 0.168387 8.43184 0.101032C8.50593 0.0336773 8.5935 0 8.69453 0H11.3113C11.4123 0 11.4998 0.0336773 11.5739 0.101032C11.648 0.168387 11.6952 0.25258 11.7154 0.353612L12.4024 5.17284L12.0286 5.42542L11.3113 0.404128H8.69453L7.9772 5.42542ZM12.7459 13.0634L11.5739 14.9527L11.4325 15.0942L11.2304 15.1447H10.8768V14.7406H11.2304L12.4933 12.6896L12.7459 13.0634ZM9.20979 15.1447H8.77535L8.58339 15.0942L8.43184 14.9527L7.25987 13.0634L7.50235 12.6896L8.77535 14.7406H9.12896H9.20979V15.1447Z" fill="#CBCBCB"/>
    <path d="M9.12897 14.7404L8.07824 13.0229V8.6785L8.86629 1.11121H11.1294L11.9175 8.6785V13.0229L10.8768 14.7404H9.2098H9.12897ZM11.4931 7.04178L11.4628 6.75889H8.54299L8.51268 7.04178L8.31061 8.6785H11.6851L11.4931 7.04178ZM18.5249 7.78942L19.1311 6.69827H19.5959L18.9796 12.1843L18.5249 11.1841V7.78942ZM1.47075 7.78942V11.1841L1.01611 12.1843L0.399811 6.69827H0.854455L1.47075 7.78942Z" fill="#AC3939"/>
    <path d="M1.47075 7.78958L1.76374 7.48648L2.72355 7.94113L7.61349 5.17285L7.97721 5.42543L7.13864 5.91039L2.74375 8.39577L1.47075 7.78958ZM12.4024 5.17285L17.2721 7.94113C17.5955 7.79295 17.9154 7.6414 18.232 7.48648L18.5249 7.78958L17.2519 8.39577L12.8672 5.91039L12.0286 5.42543L12.4024 5.17285ZM18.333 11.7298L17.4338 12.1643L17.3328 12.2047L16.8276 12.2956V11.8814L17.2519 11.8005L18.5249 11.1843L18.333 11.7298ZM13.2612 12.9624L12.7459 13.0634L12.4933 12.6896L13.2612 12.5482V12.9624ZM7.25988 13.0634L6.74462 12.9624V12.5482L7.50236 12.6896L7.25988 13.0634ZM3.15798 12.2956L2.67303 12.2047L2.572 12.1643L1.67281 11.7298L1.47075 11.1843L2.74375 11.8005L3.15798 11.8814V12.2956Z" fill="#8EA8AD"/>
    <path d="M12.4933 12.6896V8.67864L12.0286 5.42542L12.8671 5.91037L13.2612 8.67864V11.2651V11.4671V12.5482L12.4933 12.6896ZM7.13862 5.91037L7.97719 5.42542L7.50234 8.67864V12.6896L6.7446 12.5482V11.4671V11.2651V8.67864L7.13862 5.91037Z" fill="#BDD6DB"/>
    <path d="M7.13863 5.9104L6.74461 8.67868V11.2651L3.15798 10.6084V10.8003V11.8814L2.74374 11.8006V8.39579L7.13863 5.9104ZM12.8671 5.9104L17.2519 8.39579V11.8006L16.8276 11.8814V10.8003V10.6084L13.2612 11.2651V8.67868L12.8671 5.9104Z" fill="#D3E1E7"/>
    <path d="M17.2519 8.39574L18.5249 7.78955V11.1842L17.2519 11.8005V8.39574ZM2.74375 8.39574V11.8005L1.47075 11.1842V7.78955L2.74375 8.39574ZM3.15798 10.8003V10.6083L6.74462 11.2651V11.4671L5.84543 11.2954L4.95635 11.1337L4.05717 10.962L3.15798 10.8003ZM13.2612 11.4671V11.2651L16.8276 10.6083V10.8003L15.9385 10.962L15.0494 11.1337L14.1503 11.2954L13.2612 11.4671Z" fill="#B9CED7"/>
    <path d="M8.51265 7.04205L8.54296 6.75916H11.4628L11.4931 7.04205H8.51265Z" fill="#C44D4D"/>
    <path d="M8.51264 7.04199H11.4931L11.685 8.67871H8.31058L8.51264 7.04199Z" fill="#4A3C55"/>
    <path d="M18.2319 7.48649L18.7775 6.50648C18.8112 6.43912 18.8617 6.38861 18.9291 6.35493L19.1311 6.29431H19.5959C19.67 6.29431 19.7407 6.31452 19.808 6.35493L19.9596 6.52669L20 6.74896L19.3837 12.235C19.3702 12.3226 19.3332 12.4 19.2726 12.4674C19.212 12.528 19.1379 12.5684 19.0503 12.5886L18.7876 12.5381C18.7068 12.4977 18.6495 12.4371 18.6159 12.3562L18.333 11.7298L18.5249 11.1843L18.9796 12.1845L19.5959 6.69844H19.1311L18.5249 7.78958L18.2319 7.48649ZM10.8768 15.1447H9.20979V14.7406H10.8768V15.1447ZM1.6728 11.7298L1.38991 12.3562L1.20805 12.5381L0.955474 12.5886L0.7231 12.4674C0.662481 12.4 0.628804 12.3226 0.622068 12.235L0.0057732 6.74896C-0.00769774 6.66813 0.00240577 6.59404 0.0360831 6.52669L0.187631 6.35493C0.254986 6.31452 0.325708 6.29431 0.399798 6.29431H0.854442C0.928532 6.29431 0.995887 6.31452 1.05651 6.35493L1.20805 6.50648L1.76373 7.48649L1.47074 7.78958L0.854442 6.69844H0.399798L1.01609 12.1845L1.47074 11.1843L1.6728 11.7298Z" fill="#802B2B"/>
    <path d="M3.15796 11.8815V10.8004L4.05714 10.9621V12.0532L3.15796 11.8815ZM15.9385 10.9621L16.8276 10.8004V11.8815L15.9385 12.0532V10.9621ZM14.1502 11.2955L15.0494 11.1338V12.2149L14.1502 12.3765V11.2955ZM4.95633 11.1338L5.84541 11.2955V12.3765L4.95633 12.2149V11.1338Z" fill="#ECBD02"/>
    <path d="M4.95633 11.1337V12.2147L4.05714 12.0531V10.9619L4.95633 11.1337ZM6.7446 11.4671V12.5481L5.84541 12.3764V11.2953L6.7446 11.4671ZM15.0494 11.1337L15.9385 10.9619V12.0531L15.0494 12.2147V11.1337ZM13.2612 11.4671L14.1502 11.2953V12.3764L13.2612 12.5481V11.4671Z" fill="#FFCC00"/>
    <path d="M16.8276 12.2956L13.2612 12.9624V12.5482L14.1502 12.3764L15.0494 12.2148L15.9385 12.0531L16.8276 11.8813V12.2956ZM6.74459 12.9624L3.15796 12.2956V11.8813L4.05714 12.0531L4.95633 12.2148L5.84541 12.3764L6.74459 12.5482V12.9624Z" fill="#BF9900"/>
</svg>
