<svg width="10" height="58" viewBox="0 0 10 58" fill="none" xmlns="http://www.w3.org/2000/svg">
<path d="M4.50172 3.00172C4.10172 3.00172 3.75172 3.15174 3.45172 3.45174C3.15172 3.75174 3.00172 4.10172 3.00172 4.50172V52.5017C3.00172 52.9017 3.15172 53.2517 3.45172 53.5517C3.75172 53.8517 4.10172 54.0017 4.50172 54.0017C4.90172 54.0017 5.25173 53.8517 5.55173 53.5517L6.00172 52.5017V4.50172C6.00172 4.10172 5.85173 3.75174 5.55173 3.45174C5.25173 3.15174 4.90172 3.00172 4.50172 3.00172ZM4.50172 0.00172412C5.70172 -0.0316092 6.76839 0.418397 7.70172 1.35173C8.60172 2.25173 9.03506 3.30172 9.00172 4.50172V52.5017C9.03506 53.7017 8.60172 54.7684 7.70172 55.7017C6.76839 56.6017 5.70172 57.0351 4.50172 57.0017C3.30172 57.0351 2.25173 56.6017 1.35173 55.7017C0.418397 54.7684 -0.0316092 53.7017 0.00172412 52.5017V4.50172C-0.0316092 3.30172 0.418397 2.25173 1.35173 1.35173C2.25173 0.418397 3.30172 -0.0316092 4.50172 0.00172412Z" fill="#71C937"/>
</svg>
