<svg width="57" height="57" viewBox="0 0 57 57" fill="none" xmlns="http://www.w3.org/2000/svg">
<path d="M55.481 28.481C55.481 43.3927 43.3926 55.481 28.481 55.481C13.5693 55.481 1.48096 43.3927 1.48096 28.481C1.48096 13.5693 13.5693 1.48102 28.481 1.48102C43.3926 1.48102 55.481 13.5693 55.481 28.481Z" fill="#AC3939" stroke="#704423" stroke-width="2"/>
<path d="M28.481 51.3553C41.1141 51.3553 51.3553 41.1141 51.3553 28.481C51.3553 15.8479 41.1141 5.60672 28.481 5.60672C15.8479 5.60672 5.60669 15.8479 5.60669 28.481C5.60669 41.1141 15.8479 51.3553 28.481 51.3553Z" fill="#FCC24C"/>
<path d="M28.481 35.5862C24.4773 35.5862 21.2202 32.3288 21.2202 28.3251C21.2202 24.3214 24.4773 21.0641 28.481 21.0641C32.4847 21.0641 35.7418 24.3212 35.7418 28.3249C35.7418 32.3286 32.4847 35.5862 28.481 35.5862Z" fill="#704423"/>
<path d="M28.4809 31.6471C30.3155 31.6471 31.8028 30.1598 31.8028 28.3251C31.8028 26.4905 30.3155 25.0032 28.4809 25.0032C26.6462 25.0032 25.1589 26.4905 25.1589 28.3251C25.1589 30.1598 26.6462 31.6471 28.4809 31.6471Z" fill="#AC3939"/>
<path d="M30.2218 15.5099L28.4819 12.7758V12.7726L28.4809 12.7743L28.48 12.7728V12.776L26.7401 15.5102C26.6312 15.681 26.754 15.9049 26.9569 15.9049H27.7101V28.3254C27.7101 28.7512 28.0552 29.0962 28.4809 29.0962C28.9067 29.0962 29.2518 28.7512 29.2518 28.3254V15.9046H30.005C30.2079 15.9046 30.3307 15.681 30.2218 15.5099Z" fill="#1884B4"/>
<path d="M5.63092 29.5088H10.7319C11.2994 29.5088 11.7597 29.0485 11.7597 28.481C11.7597 27.9135 11.2994 27.4532 10.7319 27.4532H5.63092C5.61574 27.7939 5.60669 28.1364 5.60669 28.481C5.60669 28.8256 5.61574 29.1681 5.63092 29.5088Z" fill="#AC3939"/>
<path d="M28.4809 45.2023C27.9134 45.2023 27.4531 45.6626 27.4531 46.2301V51.3311C27.794 51.3465 28.1364 51.3553 28.4809 51.3553C28.8255 51.3553 29.1678 51.3463 29.5087 51.3311V46.2301C29.5087 45.6626 29.0484 45.2023 28.4809 45.2023Z" fill="#AC3939"/>
<path d="M44.4416 37.6958C44.725 37.2042 45.3541 37.0356 45.8455 37.3197L48.7813 39.0143C48.4639 39.6239 48.1208 40.2176 47.7518 40.7934L44.818 39.0995C44.3261 38.8161 44.1578 38.1872 44.4416 37.6958Z" fill="#E0EBFC"/>
<path d="M37.6957 44.4415C38.1868 44.1574 38.8162 44.326 39.0996 44.8176L40.7935 47.7515C40.2177 48.1205 39.6238 48.4636 39.0144 48.7812L37.3196 45.8454C37.0357 45.3538 37.2041 44.7254 37.6957 44.4415Z" fill="#E0EBFC"/>
<path d="M18.4392 45.1783C18.7052 44.6772 19.3283 44.4868 19.8292 44.7535C20.3304 45.0198 20.5208 45.6423 20.254 46.1435L18.6619 49.138C18.0416 48.8419 17.4372 48.5181 16.8491 48.1694L18.4392 45.1783Z" fill="#E0EBFC"/>
<path d="M11.1167 37.3197C11.6078 37.0356 12.2372 37.2042 12.5206 37.6958C12.8045 38.1872 12.6361 38.8159 12.1445 39.0995L9.21065 40.7934C8.84138 40.2176 8.49854 39.6239 8.18115 39.0143L11.1167 37.3197Z" fill="#E0EBFC"/>
<path d="M45.2024 28.481C45.2024 29.0485 45.6627 29.5088 46.2302 29.5088H51.3312C51.3463 29.1681 51.3554 28.8256 51.3554 28.481C51.3554 28.1364 51.3463 27.7939 51.3312 27.4532H46.2302C45.6627 27.4532 45.2024 27.9135 45.2024 28.481Z" fill="#AC3939"/>
<path d="M12.1445 17.8626L9.21065 16.1687C8.84163 16.7445 8.49854 17.3381 8.18115 17.9475L11.1169 19.6426C11.3626 19.7845 11.6428 19.8134 11.8968 19.7454C12.1508 19.6773 12.3792 19.5121 12.5208 19.2665C12.8045 18.7748 12.6361 18.1459 12.1445 17.8626Z" fill="#E0EBFC"/>
<path d="M18.4392 11.7835C18.5724 12.0341 18.7946 12.2071 19.0461 12.2842C19.2977 12.361 19.5786 12.3419 19.829 12.2085C20.3301 11.9423 20.5205 11.3198 20.2538 10.8186L18.6617 7.82407C18.0414 8.12017 17.4369 8.44392 16.8489 8.79263L18.4392 11.7835Z" fill="#E0EBFC"/>
<path d="M45.8454 19.6423L48.7812 17.9472C48.4638 17.3379 48.1207 16.7442 47.7517 16.1684L44.8179 17.8623C44.3262 18.1459 44.1576 18.7746 44.4417 19.266C44.5834 19.5119 44.8117 19.6771 45.0657 19.7449C45.3195 19.8131 45.5997 19.7843 45.8454 19.6423Z" fill="#E0EBFC"/>
<path d="M39.0144 8.18082L37.3196 11.1166C37.0357 11.6082 37.2041 12.2366 37.6957 12.5205C37.9414 12.6624 38.2216 12.6913 38.4756 12.623C38.7296 12.555 38.9579 12.3898 39.0996 12.1444L40.7935 9.21056C40.2177 8.84129 39.6238 8.49845 39.0144 8.18082Z" fill="#E0EBFC"/>
<path d="M28.4809 5.60645C28.1364 5.60645 27.794 5.6155 27.4531 5.63067V10.7317C27.4531 11.2991 27.9134 11.7594 28.4809 11.7594C29.0484 11.7594 29.5087 11.2991 29.5087 10.7317V5.63092C29.1678 5.6155 28.8255 5.60645 28.4809 5.60645Z" fill="#AC3939"/>
<path d="M46.2217 28.4803H46.2185L43.8333 27.2871C43.4917 27.116 43.0894 27.3644 43.0894 27.7464V27.9669H28.4809C28.1971 27.9669 27.967 28.1969 27.967 28.4808C27.967 28.7646 28.1971 28.9946 28.4809 28.9946H43.0894V29.2151C43.0894 29.5971 43.4915 29.8458 43.8333 29.6747L46.2185 28.4815H46.2217L46.2202 28.481L46.2217 28.4803Z" fill="#1884B4"/>
</svg>
