<svg width="57" height="57" viewBox="0 0 57 57" fill="none" xmlns="http://www.w3.org/2000/svg">
<path d="M28.2765 5.97811L28.8436 6.36859L29.4107 5.9781C37.2011 0.614015 43.7475 0.941711 48.3186 4.02976C52.9695 7.17165 55.8435 13.3429 55.8435 20.164C55.8435 26.539 52.4945 33.4288 47.5339 39.7444C42.5896 46.0391 36.1424 51.6368 30.1722 55.4122L30.7067 56.2574L30.1722 55.4122C29.3452 55.9352 28.3418 55.9352 27.5148 55.4122C23.7724 53.0455 19.8363 49.9582 16.1982 46.4264L13.5193 43.6831C6.80012 36.4178 1.84351 27.919 1.84351 20.164C1.84351 13.3429 4.71752 7.17165 9.36841 4.02976C13.9396 0.941711 20.486 0.614013 28.2765 5.97811Z" fill="#AC3939" stroke="#704423" stroke-width="2"/>
</svg>
