<svg width="104" height="83" viewBox="0 0 104 83" fill="none" xmlns="http://www.w3.org/2000/svg">
    <path d="M70.1501 11.8998L70.4001 14.6998L71.8001 29.2998L72.4501 36.1498L72.3001 37.1498L65.4501 53.1998L61.9501 61.4998L60.1001 65.7498L59.3501 66.6498L58.2502 66.9498H45.5501L44.4501 66.6498L43.7001 65.7498L41.9001 61.4998L38.3501 53.1498L31.5501 37.1498L31.4001 36.1998L32.0501 29.2498L33.4001 14.7498L33.7001 11.8497L33.8501 9.94983C33.8835 9.58316 34.0001 9.26642 34.2001 8.99976C34.3335 8.76642 34.5168 8.58316 34.7502 8.44983L34.9501 8.34973L38.9501 6.2998V8.5498L35.8501 10.0997L33.4001 36.3497L45.5501 64.9498H58.2502L70.4501 36.3497L67.9501 10.0997L64.9001 8.5498V6.34973L68.8501 8.34973L69.6001 8.99976L69.9501 9.89978L70.1501 11.8998Z" fill="#A1A1A1"/>
    <path d="M70.15 11.9001L86.6 25.5001H101.8C102.367 25.5001 102.85 25.7001 103.25 26.1001C103.617 26.4668 103.8 26.9335 103.8 27.5001V32.6501L103.55 33.6501L76.15 81.9502L75.4 82.7002L74.4 82.9502H67.25L67.6 80.9502H70.9H74.4L101.8 32.6501V27.5001H85.85L70.4 14.7002L70.15 11.9001ZM33.7 11.8501L33.4 14.7501L17.95 27.5001H2V32.6501L29.4 80.9502H32.9H36.2L36.55 82.9502H29.4L28.4 82.7002L27.65 81.9502L0.25 33.6501L0 32.6501V27.5001C0 26.9335 0.183321 26.4668 0.549988 26.1001C0.949988 25.7001 1.43333 25.5001 2 25.5001H17.2L33.7 11.8501Z" fill="#485D36"/>
    <path d="M64.9001 8.5498L67.9501 10.0997L70.4501 36.3497L58.2502 64.9498H45.5501L33.4001 36.3497L35.8501 10.0997L38.9501 8.5498V27.1998H64.9001V8.5498ZM45.8501 52.8998L46.7001 54.8998H57.1001L65.3501 35.5498L64.9001 30.6498H51.9001H38.9501L38.5002 35.5498L45.8501 52.8998Z" fill="#DBDBDB"/>
    <path d="M64.9002 6.34998V8.55005L51.9002 2L38.9502 8.55005V6.30005L51.0002 0.25L51.9002 0L52.8002 0.25L64.9002 6.34998ZM38.3502 53.15L41.9002 61.5L45.3502 80.6C45.4502 81 45.4169 81.3833 45.2502 81.75L44.5002 82.65L43.4002 82.9501H36.5502L36.2002 80.9501H36.3002H43.4002L38.3502 53.15ZM61.9502 61.5L65.4502 53.2001L60.4002 80.9501H67.5002H67.6002L67.2502 82.9501H60.4002L59.3002 82.65C58.9669 82.4167 58.7169 82.1167 58.5502 81.75C58.3835 81.3833 58.3502 81 58.4502 80.6L61.9502 61.5Z" fill="#C4C4C4"/>
    <path d="M32.05 29.25L31.4 36.2001L31.55 37.15L38.35 53.15L43.4 80.9501H36.3L27.75 36.1L32.05 29.25ZM65.45 53.2001L72.3 37.15L72.45 36.15L71.8 29.3L76.05 36.1L67.5 80.9501H60.4L65.45 53.2001ZM38.95 8.55005L51.9 2L64.9 8.55005V27.2001H38.95V8.55005Z" fill="#EEEEEE"/>
    <path d="M51.9001 30.6499H64.9001L65.3501 35.5499L57.1001 54.8999H46.7001L45.8501 52.8999H51.9001V30.6499Z" fill="#544763"/>
    <path d="M51.9 30.6499V52.8999H45.85L38.5 35.5499L38.95 30.6499H51.9Z" fill="#4A3C55"/>
    <path d="M85.85 27.5H101.8V32.65L74.4 80.9501H70.9L85.85 27.5ZM32.9 80.9501H29.4L2 32.65V27.5H17.95L32.9 80.9501Z" fill="#65804F"/>
    <path d="M32.9002 80.9502L17.9502 27.5001L33.4002 14.7501L32.0502 29.2501L27.7502 36.1001L36.3002 80.9502H36.2002H32.9002ZM71.8002 29.3002L70.4002 14.7002L85.8502 27.5001L70.9002 80.9502H67.6002H67.5002L76.0502 36.1001L71.8002 29.3002Z" fill="#7C9865"/>
</svg>
